<svg width="725" height="969" viewBox="0 0 725 969" fill="none" xmlns="http://www.w3.org/2000/svg">
<path d="M212 309.006L211.802 309.091C212.567 310.513 215.341 315.011 222.5 326.006C233.7 343.206 255.5 356.506 265 361.006C282 368.339 321.5 379.406 343.5 365.006C371 347.006 377 325.006 380 322.006C382.4 319.606 386.667 314.672 388.5 312.506L393.5 315.006C401.833 319.672 421.6 329.806 434 333.006C449.5 337.006 490.5 342.506 512.5 378.506C534.5 414.506 547 467.006 547 467.006C547 467.006 545.804 462.31 524.5 467.006C503.196 471.701 501 479.006 501 479.006C459.5 631.006 474.93 759.245 479.5 785.006C485 816.006 501 887.006 501 887.006C501 887.006 488.5 890.006 485 887.006C479.5 882.291 478.47 882.706 474 892.506C461 921.006 437.167 924.339 419.5 939.006C405.833 939.006 377.8 938.506 375 936.506C372.2 934.506 373.833 930.672 375 929.006C383.5 921.672 396.1 906.506 378.5 904.506C356.5 902.006 336.5 911.506 328 914.006C319.5 916.506 286.5 931.506 282 936.506C278.4 940.506 259.5 939.839 250.5 939.006C236.833 933.339 206.3 921.206 193.5 918.006C180.7 914.806 173.5 909.339 171.5 907.006C169.5 903.339 163.6 897.206 156 902.006C146.5 908.006 128 888.006 120.5 889.006C113 890.006 100.5 911.506 100.5 907.006C100.5 902.506 116 820.506 118.5 808.006C127.8 761.506 142.5 593.506 118.5 577.006C94.5 560.506 26 560.506 26.5 557.506C27 554.506 26 550.006 31.5 520.506C35.9 496.906 56.6667 428.672 66.5 397.506C78.9 367.106 120.667 346.506 140 340.006L211.802 309.091C211.371 308.288 211.579 308.464 212 309.006Z" fill="url(#paint0_linear_33_170)"/>
<path d="M127 591.006C128.667 576.672 131 546.606 127 541.006C126.631 540.489 126.404 540.177 126.304 540.041C126.224 539.932 126.226 539.936 126.304 540.041C127.439 541.566 144.664 564.372 155.5 563.506C165.5 562.706 140.667 581.506 127 591.006Z" fill="black"/>
<path d="M210 310.006C218.167 324.172 241.348 351.94 266 362.506C294 374.506 310.5 374.462 331 370.006C365.5 362.506 379.5 326.006 382.5 322.006C384.9 318.806 387.5 314.339 388.5 312.506M204.5 313.006C210.833 323.339 225.8 346.006 235 354.006C246.5 364.006 275 379.006 300.5 381.006C326 383.006 339.5 378.006 350 372.506C360.5 367.006 371.403 354.006 377.5 345.006C385.9 332.606 392.5 318.672 392.5 316.506M27 550.506C51.3333 551.172 105.5 556.006 127.5 570.006" stroke="white" stroke-width="3"/>
<path d="M229 297.006C234.6 289.406 242.833 271.839 245 261.006C245 268.506 253.5 289.506 256 293.506C258.5 297.506 266.5 312.006 289 329.006C311.5 346.006 328.5 348.506 335.5 348.506C342.5 348.506 352 337.506 355 336.006C358 334.506 379.703 321.896 379.5 322.506C378.5 325.506 365 351.506 350 360.506C340.48 366.217 326 372.006 313 371.506C292 370.698 270.5 363.506 258 357.006C241.432 348.39 220.5 328.006 212 308.506C213.667 307.172 223.4 304.606 229 297.006Z" fill="url(#paint1_linear_33_170)"/>
<path d="M228.5 301.506C224.1 308.306 218.333 312.339 215 314.506L218.5 320.506C221.667 317.839 227.6 312.306 232 305.506C236.4 298.706 242.167 273.339 244.5 261.506C241 272.006 232.9 294.706 228.5 301.506Z" fill="white"/>
<path d="M236 185.506V181.506V140.506L302.5 126.506C355.167 154.339 457.9 211.306 447.5 216.506C434.5 223.006 430 234.006 422 245.006C414 256.006 411 268.506 410.5 269.506C410 270.506 403 288.006 397.5 297.506C392 307.006 381.5 321.506 373.5 325.506C365.5 329.506 353 337.506 345 343.006C337 348.506 333.5 351.506 317 345.006C300.5 338.506 272 315.506 265 307.006C258 298.506 251 283.006 247.5 271.006C244 259.006 245 242.006 243 240.006C241 238.006 229.5 237.506 217 224.006C204.5 210.506 206.5 193.006 207 187.506C207.5 182.006 205.5 177.006 214.5 173.006C221.7 169.806 231.833 180.006 236 185.506Z" fill="url(#paint2_linear_33_170)"/>
<path d="M217.5 165.006C207.5 165.006 207.333 176.339 207.5 180.506C207.895 178.172 210.448 173.206 217.5 172.006C224.552 170.806 232.771 180.506 236 185.506V182.506C233.333 175.672 226.059 165.006 217.5 165.006Z" fill="white"/>
<path d="M285.742 278.24C285.206 280.948 282.137 282.623 278.886 281.98C275.635 281.337 273.434 278.619 273.97 275.91C274.506 273.202 277.576 271.527 280.827 272.17C284.077 272.813 286.278 275.531 285.742 278.24Z" fill="white"/>
<path d="M280.5 220.006C277.7 217.606 272.667 217.006 270.5 217.006C271.167 218.006 272.9 220.806 274.5 224.006C276.5 228.006 279 228.006 280.5 228.006C282 228.006 284 223.006 280.5 220.006Z" fill="white"/>
<path d="M345.5 314.006C339.9 312.406 333.5 307.672 331 305.506L331.5 306.506C332 307.839 333 310.006 334 311.506C335.177 313.271 341 320.506 350 321.506C359 322.506 362 319.506 363.5 318.006C364.7 316.806 367.667 311.172 369 308.506C367.167 309.839 362.8 312.806 360 314.006C356.5 315.506 352.5 316.006 345.5 314.006Z" fill="white"/>
<path d="M247.5 272.506C245.1 264.506 244 246.506 243.5 240.506C244.167 243.506 246.5 258.006 249 265.506C252.198 275.099 255 281.506 262 291.506C269 301.506 278 310.006 287.5 316.006C288.5 316.637 308 315.256 309.5 316.006C316.5 319.506 345.5 321.506 349.5 321.506C357.5 321.506 363 318.506 363 318.506H369C372 318.506 380.5 316.006 390.5 303.006C399.995 290.662 410.5 269.006 410.5 269.006C410.5 269.006 395.5 313.506 373 326.006C346.025 340.992 346 343.658 340.5 347.006C335 350.353 324.5 348.006 315 344.006C305.5 340.006 294.5 333.506 276.5 318.506C258.5 303.506 250.5 282.506 247.5 272.506Z" fill="white"/>
<path d="M338.602 257.774C324.637 250.971 303.239 244.879 292.5 242.506V246.506L309.966 251.161C316.784 253.874 331.75 259.91 337.068 262.351C342.386 264.793 345 271.506 348 275.006C356.5 278.506 366 276.642 367.5 275.006C373 269.006 380.398 264.506 385.5 262.351C392.151 259.543 410.5 253.006 417.864 251.161L424 242.006C423.148 242.514 419.045 245.285 417 246.506C414.443 248.031 404.159 251.98 397 253.506C391.273 254.726 386.932 255.488 382.5 256.506C375 258.227 344.5 260.646 338.602 257.774Z" fill="white"/>
<path d="M331.5 323.006C324.3 321.806 316.5 321.672 313.5 321.506C314.333 321.839 317.2 322.906 322 324.506C328 326.506 334 330.506 342.5 330.506C351 330.506 356 324.506 356 324.506C356 324.506 340.5 324.506 331.5 323.006Z" fill="black"/>
<path d="M322 244.006C312 241.206 298.833 241.839 293.5 242.506C306.5 245.506 301 244.006 318.5 249.506C344.187 257.579 340 258.506 340 258.506H349.5C350 257.506 349.5 254.606 348.5 254.006C346 252.506 334.5 247.506 322 244.006Z" fill="black"/>
<path d="M382 265.006L378 268.006L384.5 271.506L391 274.506C394.167 275.506 400.5 275.906 404.5 273.506C408.5 271.106 410.5 264.672 413.5 258.506C412 260.672 412.1 260.406 410.5 262.006C408.5 264.006 402.5 268.006 396 268.006C390.8 268.006 384.5 266.006 382 265.006Z" fill="black"/>
<path d="M355.5 318.006C351.5 318.291 344.5 316.006 339 314.506C346 320.006 348 322.006 354 321.506C356.983 321.257 361.293 319.871 363 318.506C363.5 318.105 366.5 314.006 366.5 312.506C365.5 314.006 359.5 317.72 355.5 318.006Z" fill="black"/>
<path d="M362.5 283.506C363.3 279.106 366.5 276.006 368 275.006C368.333 278.506 368 288.506 369 290.506C370 300.006 370.5 297.672 371.5 299.506C371.833 301.006 372 305.106 370 307.506C368 309.906 363.5 312.006 361.5 313.006C361.5 305.006 361.7 287.906 362.5 283.506Z" fill="black"/>
<path d="M341.5 298.006C341 297.006 339.5 295.006 337 295.006C336.333 294.839 334.8 294.906 334 296.506C333.2 298.106 333.667 300.172 334 301.006C334.833 301.172 336.6 301.706 337 302.506C337.4 303.306 339.833 303.172 341 303.006C341.333 301.672 341.9 298.806 341.5 298.006Z" fill="black"/>
<path d="M321 273.006C309 273.406 297.667 263.506 293.5 258.506L299.5 269.506C302.667 272.839 311.8 279.506 323 279.506C334.2 279.506 341.333 272.172 343.5 268.506C343 267.506 340 263.324 339 263.506C333.5 264.506 336 272.506 321 273.006Z" fill="black"/>
<path d="M235 188.006C232.2 194.806 236.833 213.006 240.5 223.506V229.006C237.5 229.339 230.9 229.806 228.5 229.006C225.5 228.006 224 225.006 223.5 223.506C223 222.006 223 217.506 227 216.006C231 214.506 236.5 223.506 235.5 221.506C234.5 219.506 233 213.506 231.5 213.006C230 212.506 235 212.506 226 213.006C217 213.506 214 209.006 213 207.506C212 206.006 211 201.006 215 196.506C219 192.006 223 192.006 225 192.006C226.6 192.006 230.667 195.006 232.5 196.506C232.667 195.506 232.4 192.606 230 189.006C227 184.506 223 185.006 221 183.006C219 181.006 221.71 177.006 223.5 177.006C226.5 177.006 236.647 184.006 235 188.006Z" fill="black"/>
<path d="M222 109.006C214 133.006 216.5 151.172 218.5 165.006C222.333 167.839 224 166.506 232 175.006C233.533 176.634 237 181.506 239 193.006C241.149 205.36 252 227.506 252 227.506C252 227.506 258.5 207.506 269.5 204.006C280.5 200.506 298.5 196.006 298.5 196.006C298.5 196.006 310 213.006 314 215.006C313 206.006 316 200.506 316 200.506C316 200.506 320 217.006 344.5 238.006C339 228.506 340.45 221.006 341 223.006C346.5 243.006 365 253.006 365 253.006L351.5 232.006C351.5 232.006 359.333 240.172 365 245.006C368.5 248.506 380 252.006 380 252.006C380 252.006 372 240.44 375.5 241.506C384 244.092 394.5 248.506 393 253.006C394 253.006 413.5 249.506 419.5 245.006C427.5 239.006 427 237.006 434 227.506C441 218.006 451 216.506 457 206.006C463 195.506 462.5 192.506 462.5 192.506C462.5 192.506 465.167 200.172 465 204.006C465.667 204.839 467.2 202.606 468 187.006C469 167.506 465 167.506 466 167.506C468.912 167.506 470.167 175.506 470.5 180.006C471.167 179.672 472.4 176.906 472 168.506C471.5 158.006 466 141.006 464.5 137.006C463 133.006 458.5 115.506 457.5 97.0056C456.743 83.0056 451 78.5056 451 78.5056C451 78.5056 460.625 81.8526 460 81.5056C455.5 79.0056 452.5 75.5056 451 73.5056C449.8 71.9056 455.5 71.8389 458.5 72.0056C447 60.1722 420.3 33.7056 405.5 22.5056C387 8.50555 359 1.50555 343 2.50555C327 3.50555 318 8.50555 315 8.50555C294.5 8.50555 285.188 26.0056 285.5 23.5056C286.7 13.9056 294.667 4.17222 298.5 0.505552C297 0.338886 290.535 3.89218 285.5 10.0056C279.324 17.5056 281 34.5056 280 27.0056C278.941 19.0603 275.5 14.5056 276.5 16.5056C277.145 17.7955 277 23.8389 276.5 27.0056C274.833 24.5056 267.3 20.5056 258.5 20.5056C247.5 20.5056 244.021 25.2095 245 25.0055C257 22.5056 265.5 28.5383 264.5 28.5056C234 27.5056 227.645 55.4283 228 55.0055C251.5 27.0055 270 38.0056 270 38.0056C270 38.0056 249 41.0056 243 45.5056C236.333 50.5056 233.5 53.5055 223 75.5056C213.908 94.5562 213 111.506 214.5 118.006C216 114.506 218 112.006 222 109.006Z" fill="black" stroke="black"/>
<path d="M169 557.506C161.8 563.106 140.833 582.006 127 593.506C127 593.506 126.394 587.057 124.5 583.506C122.606 579.954 118.5 576.506 118.5 576.506C118.5 576.506 102.374 567.711 83.5 563.506C68.2843 560.116 48.7573 560.249 40.5 559.506C40.5 564.839 40.5 586.506 38.5 625.005C35.9754 673.605 42.5 700.005 50 716.505C57.5 733.005 76 748.005 82 748.505C86.8 748.905 103 740.672 110.5 736.505C130 727.505 171.3 699.305 180.5 658.505C192 607.505 208.5 593.506 212 593.506C215.5 593.506 223.5 596.506 229 593.506C238.488 588.33 242.167 588.339 243.5 590.006C244.833 590.006 252.2 591.806 271 599.006C289.8 606.206 318.833 598.339 331 593.506C342.667 584.172 366.922 563.434 366.5 562.506C364 557.006 295 502.006 280.5 496.506C271.955 493.264 252.333 495.006 243.5 496.506C240 499.006 235.5 500.749 218.5 516.506C177.5 554.505 178 550.506 169 557.506Z" fill="url(#paint3_linear_33_170)"/>
<path d="M144 579.006C79.6 631.006 57.8333 657.672 55 664.506C57.1667 664.006 62.6 662.205 67 659.006C72.5 655.006 135.5 595.505 153.5 580.505C171.5 565.505 177 563.005 180 562.505C183 562.005 189.5 553.505 192.5 548.005C195.5 542.505 243 502.506 244.5 501.005C245.561 499.945 276.5 498.505 280 501.005C283.5 503.505 314.5 525.005 322.5 530.505C328.9 534.905 353.833 555.672 365.5 565.505L366.5 563.005C357.833 553.339 335.316 534.089 327 527.505C315 518.006 287 496.506 281 495.006C275 493.506 251.5 494.006 244.5 495.006C237.5 496.006 237 501.005 206.5 527.505C176 554.005 224.5 514.006 144 579.006Z" fill="white"/>
<path d="M319.5 542.506C332.7 546.906 352.667 562.339 361 569.506L333 591.506L325.5 593.006C321.667 592.506 319.2 589.806 318 589.006C316.5 588.006 278.5 551.043 288.5 554.006C302 558.006 322.5 571.506 330.5 573.006C338.5 574.506 348.866 561.006 341.5 556.506C327 547.648 312.225 545.173 288.5 535.006C267.5 526.006 259 508.006 260.5 510.506C262 513.006 281 524.506 283 526.006C285 527.506 303 537.006 319.5 542.506Z" fill="white"/>
<path d="M188.5 635.006C167.5 701.506 157.667 698.839 151.5 707.006C158.5 697.506 172 669.006 174 664.506C176 660.006 182.5 631.006 188.5 616.006C194.5 601.006 206.5 588.506 209.5 587.006C212.5 585.506 216 591.506 223 590.006C230 588.506 230.935 583.506 238 583.506C244 583.506 257.136 593.074 260 594.506C263 596.006 274 600.801 272.5 600.506C252 596.473 243 587.006 237 590.006C229.929 593.541 223 596.006 214.5 594.506C213 593.006 200.777 596.129 188.5 635.006Z" fill="white"/>
<path d="M516 726.006C496 720.006 480 680.006 472.5 668.006C472.5 668.006 472.227 658.506 475 628.006C477.5 600.506 483 562.506 483 562.506C483 562.506 487.601 527.006 493.5 504.506C496.398 493.452 500.277 479.006 502.5 476.506C510.838 467.13 523.5 465.972 532 465.006C537.626 464.366 540.97 463.786 546.5 465.006C549 465.557 560.5 524.006 560.5 524.006L546.5 658.233L555 658.506L585.5 628.006L625.5 634.006L594 682.506C577.833 702.506 548 735.606 516 726.006Z" fill="url(#paint4_linear_33_170)"/>
<path d="M469 517.428C481.782 515.673 494.148 497.598 498.485 486.856C499.366 484.192 499.839 482.875 499.5 484.006C499.239 484.875 498.899 485.832 498.485 486.856C495.862 494.792 489.627 514.683 490.5 517.428L469 517.428Z" fill="black"/>
<path d="M291.5 627.006C273.1 644.206 274.5 653.839 277.5 656.506L554 605.006L683 527.506C680.833 523.172 675.4 514.306 671 513.506C665.5 512.506 477 516.506 445 519.506C413 522.506 399.5 537.506 396 538.506C392.5 539.506 314.5 605.506 291.5 627.006Z" fill="white"/>
<path d="M281 644.006C277.8 648.006 277 654.006 277 656.506L302.5 652.006L484.5 620.006L640.5 566.506C654.667 553.839 682.7 527.806 681.5 525.006C680 521.506 674 514.506 670 514.506C666 514.506 480.5 521.006 471.5 522.006C462.5 523.006 441.5 528.006 432 528.006C422.5 528.006 405.5 538.006 401 540.506C397.4 542.506 364.833 569.672 349 583.006C327.667 601.672 284.2 640.006 281 644.006Z" fill="#484646"/>
<path d="M422 540.506C418 541.306 324.667 617.506 278.5 655.506H554L674.5 547.506C677.833 542.672 683.5 531.806 679.5 527.006C674.5 521.006 427 539.506 422 540.506Z" fill="black" stroke="black"/>
<path d="M679.5 584.005C678.7 588.805 668.5 599.005 663.5 603.505C661.833 608.339 663.5 616.006 661 619.506C659.305 621.878 652 628.506 650 629.006C648 629.506 643 635.006 640.5 638.506C638 642.006 628.5 643.006 627 643.506C625.5 644.006 624 650.006 621 654.006C618.6 657.206 610 657.839 607.5 658.006L604.5 664.006C600.833 666.839 591.8 671.706 585 668.506C578.2 665.306 568.167 654.839 564 650.006C563.167 649.339 561.2 646.606 560 641.006C558.5 634.006 560.5 629.006 561.5 626.506C562.5 624.006 570.5 620.506 575 622.506C578.6 624.106 583.167 629.839 585 632.506L587.5 630.506L582.5 624.506C580.5 622.106 580.667 617.839 581 616.006C582 612.006 586.5 607.506 589.5 605.506C591.312 604.298 593.67 605.825 594.484 606.454C594.279 606.267 593.958 605.963 593.5 605.506C590 602.006 595.9 581.806 607.5 587.006C619.1 592.206 626.333 593.839 628.5 594.006L637 584.005L635 580.506C636.5 574.506 636 574.505 640.5 568.505C644.1 563.705 652.333 565.006 656 566.006L676.5 574.505C679.5 576.506 680.3 579.205 679.5 584.005Z" fill="#C89346"/>
<path d="M640 574.006C640 570.806 645.333 568.006 648 567.006C646.5 565.006 640 567.198 637 572.506C631.8 581.706 639.167 589.006 643.5 591.506C653.333 593.672 669.7 596.706 656.5 591.506C640 585.006 640 578.006 640 574.006Z" fill="white"/>
<path d="M626.5 595.006C634.1 597.805 652.667 600.506 661 601.506C659.5 601.839 656.1 602.506 654.5 602.506C652.5 602.506 645 603.506 635.5 602.506C627.9 601.706 616 593.839 611 590.006C609 588.839 603.8 587.506 599 591.506C593 596.506 596 609.506 596.5 604.506C596.9 600.506 599 598.506 600 598.006C599.333 600.839 598.4 606.806 600 608.006C602 609.506 610.5 616.006 619 619.006C627.5 622.006 647 625.006 650 626.506C652.4 627.706 651 628.006 650 628.006C639.333 626.839 615.7 623.206 606.5 618.006C597.3 612.806 594 604.839 593.5 601.506C593.333 597.672 594.9 589.506 602.5 587.506C612 585.006 617 591.506 626.5 595.006Z" fill="white"/>
<path d="M584.5 616.006C585.3 612.006 589.833 608.339 592 607.006C592 607.006 590.463 604.906 585.5 608.506C579.297 613.006 580.5 616.006 580.5 618.006C580.5 620.006 582 628.006 595.5 635.506C609 643.006 638 641.006 631.5 640.006C625 639.006 606.5 637.006 597.5 631.506C587.913 625.646 583.5 621.006 584.5 616.006Z" fill="white"/>
<path d="M585.5 633.506C591.297 640.64 599.833 644.339 604 647.006C602.333 647.006 598.3 646.706 595.5 645.506C592 644.006 588 642.506 584 639.006C580.634 636.061 575.833 629.506 573.5 625.506C572.167 624.672 569.1 623.306 565.5 626.506C561.9 629.706 562.667 636.839 563 638.506C564.167 643.172 569 649.506 574 655.006C580.934 662.633 589.5 664.506 593.5 665.006C596.7 665.406 603.5 659.839 606.5 657.006C608 657.006 604.618 662.932 604 663.506C594.846 672.006 592 669.006 588.5 668.506C583 667.72 573.5 661.006 565.5 649.506C557.5 638.006 561 633.506 560 631.506C559 629.506 566 620.006 573.5 622.506C576.5 623.506 579 625.506 585.5 633.506Z" fill="white"/>
<path d="M658.5 569.506C646.82 564.315 641.5 570.339 640.5 573.506C639.667 574.172 638.8 576.306 642 579.506C646 583.506 652 585.006 655 586.006C658 587.006 667.5 573.506 658.5 569.506Z" fill="#010105"/>
<path d="M602.5 590.006C595.5 591.506 594.667 600.339 596.5 605.006C596.5 603.672 596.5 593.975 606.5 605.006C611.308 610.309 616.354 606.887 618 605.006C621.5 601.006 620.282 600.043 619 598.506C616.5 595.506 606.9 589.063 602.5 590.006Z" fill="#010105"/>
<path d="M584.5 615.506C586.911 608.006 594.5 603.506 598 610.506C604 616.006 603.746 614.701 606.5 618.006C609 621.006 601 628.172 596.5 629.506C593 629.506 582.5 621.727 584.5 615.506Z" fill="#010105"/>
<path d="M563.5 630.506C566.3 624.906 571.333 625.172 573.5 626.006L578.5 633.006C578.667 633.339 578.5 634.806 576.5 638.006C574.5 641.206 569.333 644.006 567 645.006C564.667 642.506 560.7 636.106 563.5 630.506Z" fill="#010105"/>
<path d="M400 465.006H463V471.006H400V465.006Z" fill="white"/>
<path d="M421 301.006V364.006H417V301.006H421Z" fill="white"/>
<path d="M429 310.006V373.006H425V310.006H429Z" fill="white"/>
<path d="M456 297.006V360.006H452V297.006L456 297.006Z" fill="white"/>
<path d="M474 332.006V395.006H470V332.006H474Z" fill="white"/>
<path d="M483 341.006V404.006H479V341.006H483Z" fill="white"/>
<path d="M491 340.006V403.006H487V340.006H491Z" fill="white"/>
<path d="M398 475.006H467V481.006H398V475.006Z" fill="white"/>
<path d="M78 337.006H222V363.006H78V337.006Z" fill="white" fill-opacity="0.5"/>
<path d="M0 538.006H95V542.006H0V538.006Z" fill="white"/>
<path d="M19 390.006H207V405.006H19V390.006Z" fill="white" fill-opacity="0.5"/>
<path d="M89 636.006V683.006H78V636.006H89Z" fill="white" fill-opacity="0.5"/>
<path d="M213 845.006V892.006H207V845.006H213Z" fill="white" fill-opacity="0.5"/>
<path d="M286 836.006V902.006H274V836.006H286Z" fill="white" fill-opacity="0.5"/>
<path d="M301 796.006V870.006H297V796.006H301Z" fill="white"/>
<path d="M286 569.006V613.006H271V569.006H286Z" fill="white"/>
<path d="M353 633.006V635.006H344V633.006H353Z" fill="white"/>
<path d="M364 633.006V635.006H355V633.006H364Z" fill="white"/>
<path d="M342 633.006V635.006H333V633.006H342Z" fill="white"/>
<path d="M331 633.006V635.006H322V633.006H331Z" fill="white"/>
<path d="M353 629.006V631.006H344V629.006H353Z" fill="white"/>
<path d="M364 629.006V631.006H355V629.006H364Z" fill="white"/>
<path d="M342 629.006V631.006H333V629.006H342Z" fill="white"/>
<path d="M331 629.006V631.006H322V629.006H331Z" fill="white"/>
<path d="M353 625.006V627.006H344V625.006H353Z" fill="white"/>
<path d="M364 625.006V627.006H355V625.006H364Z" fill="white"/>
<path d="M342 625.006V627.006H333V625.006H342Z" fill="white"/>
<path d="M331 625.006V627.006H322V625.006H331Z" fill="white"/>
<path d="M353 621.006V623.006H344V621.006H353Z" fill="white"/>
<path d="M364 621.006V623.006H355V621.006H364Z" fill="white"/>
<path d="M342 621.006V623.006H333V621.006H342Z" fill="white"/>
<path d="M353 617.006V619.006H344V617.006H353Z" fill="white"/>
<path d="M342 617.006V619.006H333V617.006H342Z" fill="white"/>
<path d="M353 613.006V615.006H344V613.006H353Z" fill="white"/>
<path d="M232 812.006V825.006H209V812.006H232Z" fill="white"/>
<path d="M100 626.006V659.006H89V626.006H100Z" fill="white" fill-opacity="0.5"/>
<path d="M113 597.006V630.006H102V597.006H113Z" fill="white" fill-opacity="0.5"/>
<path d="M408 631.006H367V624.006H408V631.006Z" fill="white"/>
<path d="M420 599.006H413V592.006H420V599.006Z" fill="white"/>
<path d="M430 598.006H423V591.006H430V598.006Z" fill="white"/>
<path d="M439 598.006H432V591.006H439V598.006Z" fill="white"/>
<path d="M449 598.006H442V591.006H449V598.006Z" fill="white"/>
<path d="M413 621.006H367V619.006H413V621.006Z" fill="white"/>
<path d="M480 592.006C479.448 592.006 479 591.558 479 591.006V575.006C479 574.453 479.448 574.006 480 574.006H482C482.552 574.006 483 574.453 483 575.006V591.006C483 591.558 482.552 592.006 482 592.006H480Z" fill="white"/>
<path d="M489 592.006C488.448 592.006 488 591.558 488 591.006V581.006C488 580.453 488.448 580.006 489 580.006H491C491.552 580.006 492 580.453 492 581.006V591.006C492 591.558 491.552 592.006 491 592.006H489Z" fill="white"/>
<path d="M471 592.006C470.448 592.006 470 591.558 470 591.006V581.006C470 580.453 470.448 580.006 471 580.006H473C473.552 580.006 474 580.453 474 581.006V591.006C474 591.558 473.552 592.006 473 592.006H471Z" fill="white"/>
<path d="M462 592.006C461.448 592.006 461 591.558 461 591.006V579.006C461 578.453 461.448 578.006 462 578.006H464C464.552 578.006 465 578.453 465 579.006V591.006C465 591.558 464.552 592.006 464 592.006H462Z" fill="white"/>
<path d="M453 592.006C452.448 592.006 452 591.558 452 591.006V583.006C452 582.453 452.448 582.006 453 582.006H455C455.552 582.006 456 582.453 456 583.006V591.006C456 591.558 455.552 592.006 455 592.006H453Z" fill="white"/>
<path d="M343.5 790.006V889.006M320.5 798.006V897.006M297.5 782.006L297.5 881.006M274.5 778.006L274.5 877.006M252.5 793.006L252.5 892.006M232.5 825.006L232.5 924.006M207.5 795.006L207.5 894.006M186.5 815.006L186.5 914.006" stroke="white"/>
<path d="M143.333 821.006C143.333 822.478 144.527 823.672 146 823.672C147.473 823.672 148.667 822.478 148.667 821.006C148.667 819.533 147.473 818.339 146 818.339C144.527 818.339 143.333 819.533 143.333 821.006ZM389.333 821.006C389.333 822.478 390.527 823.672 392 823.672C393.473 823.672 394.667 822.478 394.667 821.006C394.667 819.533 393.473 818.339 392 818.339C390.527 818.339 389.333 819.533 389.333 821.006ZM143.333 875.006C143.333 876.478 144.527 877.672 146 877.672C147.473 877.672 148.667 876.478 148.667 875.006C148.667 873.533 147.473 872.339 146 872.339C144.527 872.339 143.333 873.533 143.333 875.006ZM389.333 875.006C389.333 876.478 390.527 877.672 392 877.672C393.473 877.672 394.667 876.478 394.667 875.006C394.667 873.533 393.473 872.339 392 872.339C390.527 872.339 389.333 873.533 389.333 875.006ZM426.333 611.006C426.333 612.478 427.527 613.672 429 613.672C430.473 613.672 431.667 612.478 431.667 611.006C431.667 609.533 430.473 608.339 429 608.339C427.527 608.339 426.333 609.533 426.333 611.006ZM523.333 600.006C523.333 601.478 524.527 602.672 526 602.672C527.473 602.672 528.667 601.478 528.667 600.006C528.667 598.533 527.473 597.339 526 597.339C524.527 597.339 523.333 598.533 523.333 600.006ZM467.333 548.006C467.333 549.478 468.527 550.672 470 550.672C471.473 550.672 472.667 549.478 472.667 548.006C472.667 546.533 471.473 545.339 470 545.339C468.527 545.339 467.333 546.533 467.333 548.006ZM431.333 561.006C431.333 562.478 432.527 563.672 434 563.672C435.473 563.672 436.667 562.478 436.667 561.006C436.667 559.533 435.473 558.339 434 558.339C432.527 558.339 431.333 559.533 431.333 561.006ZM415.333 448.006C415.333 449.478 416.527 450.672 418 450.672C419.473 450.672 420.667 449.478 420.667 448.006C420.667 446.533 419.473 445.339 418 445.339C416.527 445.339 415.333 446.533 415.333 448.006ZM398.333 503.006C398.333 504.478 399.527 505.672 401 505.672C402.473 505.672 403.667 504.478 403.667 503.006C403.667 501.533 402.473 500.339 401 500.339C399.527 500.339 398.333 501.533 398.333 503.006ZM409.333 510.006C409.333 511.478 410.527 512.672 412 512.672C413.473 512.672 414.667 511.478 414.667 510.006C414.667 508.533 413.473 507.339 412 507.339C410.527 507.339 409.333 508.533 409.333 510.006ZM398.333 393.006C398.333 394.478 399.527 395.672 401 395.672C402.473 395.672 403.667 394.478 403.667 393.006C403.667 391.533 402.473 390.339 401 390.339C399.527 390.339 398.333 391.533 398.333 393.006ZM431.333 415.006C431.333 416.478 432.527 417.672 434 417.672C435.473 417.672 436.667 416.478 436.667 415.006C436.667 413.533 435.473 412.339 434 412.339C432.527 412.339 431.333 413.533 431.333 415.006ZM227.333 459.006C227.333 460.478 228.527 461.672 230 461.672C231.473 461.672 232.667 460.478 232.667 459.006C232.667 457.533 231.473 456.339 230 456.339C228.527 456.339 227.333 457.533 227.333 459.006ZM445.333 566.006C445.333 567.478 446.527 568.672 448 568.672C449.473 568.672 450.667 567.478 450.667 566.006C450.667 564.533 449.473 563.339 448 563.339C446.527 563.339 445.333 564.533 445.333 566.006ZM587.333 548.006C587.333 549.478 588.527 550.672 590 550.672C591.473 550.672 592.667 549.478 592.667 548.006C592.667 546.533 591.473 545.339 590 545.339C588.527 545.339 587.333 546.533 587.333 548.006ZM637.333 549.006C637.333 550.478 638.527 551.672 640 551.672C641.473 551.672 642.667 550.478 642.667 549.006C642.667 547.533 641.473 546.339 640 546.339C638.527 546.339 637.333 547.533 637.333 549.006ZM146 821.006V821.506H392V821.006V820.506H146V821.006ZM146 875.006V875.506H392V875.006V874.506H146V875.006ZM429 611.006V611.506H497V611.006V610.506H429V611.006ZM526 600.006V600.506H594V600.006V599.506H526V600.006ZM470 548.006V548.506H574V548.006V547.506H470V548.006ZM434 561.006V561.506H538V561.006V560.506H434V561.006ZM418 448.006V448.506H522V448.006V447.506H418V448.006ZM401 503.006V503.506H486V503.006V502.506H401V503.006ZM412 510.006V510.506H478V510.006V509.506H412V510.006ZM401 393.006H401.5V348.006H401H400.5V393.006H401ZM434 415.006H434.5V345.006H434H433.5V415.006H434ZM230 459.006V458.506L160 458.506V459.006V459.506L230 459.506V459.006ZM448 566.006V566.506H552V566.006V565.506H448V566.006ZM538 594.006L538.331 594.38L590.331 548.38L590 548.006L589.669 547.631L537.669 593.631L538 594.006ZM599 549.006V549.506H640V549.006V548.506H599V549.006Z" fill="white"/>
<path d="M160.5 747.006C170.717 747.006 179 755.288 179 765.506C179 775.723 170.717 784.006 160.5 784.006C150.283 784.006 142 775.723 142 765.506C142 755.288 150.283 747.006 160.5 747.006ZM333.5 461.006C350.897 461.006 365 475.109 365 492.506C365 509.903 350.897 524.006 333.5 524.006C316.103 524.006 302 509.903 302 492.506C302 475.109 316.103 461.006 333.5 461.006ZM196 443.006C204.837 443.006 212 450.169 212 459.006C212 467.842 204.837 475.006 196 475.006C187.163 475.006 180 467.842 180 459.006C180 450.169 187.163 443.006 196 443.006Z" stroke="white" stroke-width="2"/>
<path d="M355 499.006C355 508.947 346.941 517.006 337 517.006C327.059 517.006 319 508.947 319 499.006C319 489.064 327.059 481.006 337 481.006C346.941 481.006 355 489.064 355 499.006Z" fill="white"/>
<path d="M406 442.506C406 450.514 399.508 457.006 391.5 457.006C383.492 457.006 377 450.514 377 442.506C377 434.497 383.492 428.006 391.5 428.006C399.508 428.006 406 434.497 406 442.506Z" fill="white"/>
<path d="M384 795.506C384 801.305 379.299 806.006 373.5 806.006C367.701 806.006 363 801.305 363 795.506C363 789.707 367.701 785.006 373.5 785.006C379.299 785.006 384 789.707 384 795.506Z" fill="white"/>
<path d="M337 686.006C337 693.185 331.18 699.006 324 699.006C316.82 699.006 311 693.185 311 686.006C311 678.826 316.82 673.006 324 673.006C331.18 673.006 337 678.826 337 686.006Z" fill="white"/>
<path d="M146 456.506C146 462.305 141.299 467.006 135.5 467.006C129.701 467.006 125 462.305 125 456.506C125 450.707 129.701 446.006 135.5 446.006C141.299 446.006 146 450.707 146 456.506Z" fill="white"/>
<path d="M194 325.006C194 332.738 187.732 339.006 180 339.006C172.268 339.006 166 332.738 166 325.006C166 317.274 172.268 311.006 180 311.006C187.732 311.006 194 317.274 194 325.006Z" fill="white"/>
<defs>
<linearGradient id="paint0_linear_33_170" x1="463.5" y1="476.006" x2="119" y2="822.006" gradientUnits="userSpaceOnUse">
<stop stop-color="#146493"/>
<stop offset="1" stop-color="#061F2D"/>
</linearGradient>
<linearGradient id="paint1_linear_33_170" x1="205.5" y1="286.506" x2="312" y2="379.506" gradientUnits="userSpaceOnUse">
<stop stop-color="#5D2D08"/>
<stop offset="1"/>
</linearGradient>
<linearGradient id="paint2_linear_33_170" x1="337.5" y1="219.506" x2="407.5" y2="313.506" gradientUnits="userSpaceOnUse">
<stop stop-color="#DBA570"/>
<stop offset="1" stop-color="#FFB947"/>
</linearGradient>
<linearGradient id="paint3_linear_33_170" x1="321.5" y1="570.006" x2="56" y2="706.006" gradientUnits="userSpaceOnUse">
<stop stop-color="#F5B353"/>
<stop offset="0.254808" stop-color="#EBAD52"/>
<stop offset="1" stop-color="#8F6830"/>
</linearGradient>
<linearGradient id="paint4_linear_33_170" x1="551.25" y1="628.005" x2="551.25" y2="728.803" gradientUnits="userSpaceOnUse">
<stop stop-color="#EBAD53"/>
<stop offset="1" stop-color="#85622F"/>
</linearGradient>
</defs>
</svg>
