<svg xmlns="http://www.w3.org/2000/svg" width="949" height="832" fill="none" viewBox="0 0 949 832">
  <g opacity=".4">
    <path stroke="#fff" stroke-width="2" d="M514.636 476.637c9.452 0 17.097 7.584 17.097 16.917 0 9.334-7.645 16.917-17.097 16.917-9.452 0-17.097-7.583-17.097-16.917 0-9.333 7.645-16.917 17.097-16.917Zm160.556-262.783c16.115 0 29.163 12.931 29.163 28.861 0 15.931-13.048 28.863-29.163 28.863-16.115-.001-29.162-12.932-29.162-28.863 0-15.93 13.047-28.861 29.162-28.861Zm-127.609-16.539c8.17 0 14.777 6.555 14.777 14.62s-6.607 14.62-14.777 14.62c-8.171 0-14.778-6.555-14.778-14.62s6.607-14.62 14.778-14.62Z"/>
    <path fill="#fff" d="M468.567 355.071c0 19.906-16.214 36.043-36.215 36.043-20.001 0-36.215-16.137-36.215-36.043s16.214-36.043 36.215-36.043c20.001 0 36.215 16.137 36.215 36.043Zm102.608-113.134c0 16.035-13.061 29.034-29.173 29.034s-29.173-12.999-29.173-29.034c0-16.036 13.061-29.035 29.173-29.035s29.173 12.999 29.173 29.035Zm52.741 534.637c0 11.612-9.458 21.025-21.125 21.025s-21.125-9.413-21.125-21.025c0-11.612 9.458-21.025 21.125-21.025s21.125 9.413 21.125 21.025Zm-191.564-47.056c0 14.377-11.71 26.031-26.156 26.031-14.445 0-26.155-11.654-26.155-26.031 0-14.376 11.71-26.031 26.155-26.031 14.446 0 26.156 11.655 26.156 26.031ZM48.071 269.97c0 11.612-9.458 21.025-21.125 21.025S5.82 281.582 5.82 269.97c0-11.612 9.458-21.025 21.125-21.025s21.125 9.413 21.125 21.025Zm151.432 49.055c0 15.483-12.611 28.034-28.167 28.034-15.557 0-28.167-12.551-28.167-28.034 0-15.482 12.61-28.033 28.167-28.033 15.556 0 28.167 12.551 28.167 28.033Zm492.406-2.861h97.863v6.724h-97.863v-6.724Zm32.621-183.789v70.602h-6.214v-70.602h6.214Zm12.427 10.086v70.602h-6.213v-70.602h6.213Zm41.942-14.568v70.601h-6.214v-70.601h6.214Zm27.961 39.223v70.602h-6.214v-70.602h6.214Zm13.98 10.086v70.602h-6.213v-70.602h6.213Zm12.427-1.121v70.602h-6.213v-70.602h6.213Zm-144.465 151.29h107.184v6.723H688.802v-6.723Z"/>
    <path fill="#fff" fill-opacity=".5" d="M191.718 172.719h223.688v29.137H191.718v-29.137Z"/>
    <path fill="#fff" d="M70.554 397.972h147.571v4.483H70.554v-4.483Z"/>
    <path fill="#fff" fill-opacity=".5" d="M100.068 232.114h292.037v16.81H100.068v-16.81Zm108.737 275.683v52.671h-17.087v-52.671h17.087Zm192.62 234.218v52.671h-9.32v-52.671h9.32Zm113.398-10.086v73.964h-18.641v-73.964h18.641Z"/>
    <path fill="#fff" d="M538.123 687.103v82.929h-6.213v-82.929h6.213Zm-23.3-254.39v49.309h-23.301v-49.309h23.301ZM618.9 504.435v2.241h-13.981v-2.241H618.9Zm17.087 0v2.241h-13.981v-2.241h13.981Zm-34.175 0v2.241h-13.98v-2.241h13.98Zm-17.087 0v2.241h-13.98v-2.241h13.98Zm34.175-4.483v2.242h-13.981v-2.242H618.9Zm17.087 0v2.242h-13.981v-2.242h13.981Zm-34.175 0v2.242h-13.98v-2.242h13.98Zm-17.087 0v2.242h-13.98v-2.242h13.98Zm34.175-4.482v2.241h-13.981v-2.241H618.9Zm17.087 0v2.241h-13.981v-2.241h13.981Zm-34.175 0v2.241h-13.98v-2.241h13.98Zm-17.087 0v2.241h-13.98v-2.241h13.98Zm34.175-4.483v2.241h-13.981v-2.241H618.9Zm17.087 0v2.241h-13.981v-2.241h13.981Zm-34.175 0v2.241h-13.98v-2.241h13.98Zm17.088-4.483v2.242h-13.981v-2.242H618.9Zm-17.088 0v2.242h-13.98v-2.242h13.98Zm17.088-4.482v2.241h-13.981v-2.241H618.9ZM430.94 705.033v14.569h-35.728v-14.569h35.728Z"/>
    <path fill="#fff" fill-opacity=".5" d="M225.892 496.59v36.982h-17.087V496.59h17.087Zm20.194-32.499v36.982h-17.087v-36.982h17.087Z"/>
    <path fill="#fff" d="M704.336 502.194h-63.689v-7.845h63.689v7.845Zm18.641-35.862h-10.874v-7.844h10.874v7.844Zm15.534-1.12h-10.874v-7.845h10.874v7.845Zm13.98 0h-10.874v-7.845h10.874v7.845Zm15.534 0h-10.874v-7.845h10.874v7.845Zm-55.922 25.775h-71.456v-2.241h71.456v2.241Zm104.077-32.499c-.858 0-1.553-.502-1.553-1.121v-17.93c0-.619.695-1.121 1.553-1.121h3.107c.858 0 1.553.502 1.553 1.121v17.93c0 .619-.695 1.121-1.553 1.121h-3.107Zm13.98 0c-.857 0-1.553-.502-1.553-1.121v-11.206c0-.619.696-1.121 1.553-1.121h3.107c.858 0 1.554.502 1.554 1.121v11.206c0 .619-.696 1.121-1.554 1.121h-3.107Zm-27.961 0c-.857 0-1.553-.502-1.553-1.121v-11.206c0-.619.696-1.121 1.553-1.121h3.107c.858 0 1.554.502 1.554 1.121v11.206c0 .619-.696 1.121-1.554 1.121h-3.107Zm-13.98 0c-.858 0-1.553-.502-1.553-1.121v-13.448c0-.619.695-1.12 1.553-1.12h3.107c.858 0 1.553.501 1.553 1.12v13.448c0 .619-.695 1.121-1.553 1.121h-3.107Zm-13.981 0c-.857 0-1.553-.502-1.553-1.121v-8.965c0-.619.696-1.121 1.553-1.121h3.107c.858 0 1.554.502 1.554 1.121v8.965c0 .619-.696 1.121-1.554 1.121h-3.107Z"/>
  </g>
  <path fill="#9CDDED" d="M847.051 623.232c-65.693 113.523-200.169 127.08-367.73 75.161-40.896-12.672-97.018-74.679-136-91.5-47.842-20.644-105.332-46.919-142.5-76.5-117.21-93.284-179.05-196.274-117-303.5 63.375-109.519 207.999-157 371.999-161.5 111.5 14 103.001 36 201.5 64 107.5 18 170.438 129.5 170.438 129.5 65.022 120.139 72.037 273.193 19.293 364.339Z" opacity=".15"/>
  <path stroke="#fff" stroke-width="8" d="M493.32 583.893c-31-2.657-56 0-100 0s-48-71-38-92m138 92h50m-50 0c6.117.524 15.442 3.138 22.929 9.312m12.071 131.688v-97.5m-173-135.5h88m-88 0h-86.5c-12.666-2.5-37.6-15.5-36-47.5m260.5 47.5h-50m0 0c-12.333-1.667-36.7-13.5-35.5-47.5 1.2-34 32.167-40.834 47.5-40h88c6.167.166 20.8 3.1 30 13.5s9.167 22 8 26.5m-348.5 0c1.6-32 19.334-44.333 28.001-46.5h94.499c17.667-3 56.501-17.9 70.5-53.5 14-35.6 2.167-72.833-5.5-87-8.166-13.5-32.6-40.4-65-40-32.4.4-60.499.167-70.499 0-6-19.667-3.9-59.2 52.5-60 56.399-.8 87.166-.333 95.5 0m-200.001 287c-18.666-3.167-57.199-23.2-62-78-4.8-54.8 17.667-84.5 29.5-92.5 5.167-5.5 20.001-16.5 38.001-16.5 1.5 13.167 9.699 39.5 30.499 39.5h77.501m-61.5 43.5h61.5m86.5-183c12.666-.167 38 7.6 38 40v10.5m-38-50.5c-3.5-6.333 2.5-19.3 54.5-20.5 52-1.2 78.999-.5 85.999 0 8.334 1.333 25.901 7.3 29.501 20.5m0 0H581.32c-10.333 1.667-30.099 12-26.499 40m48-40h34.5c11-1.667 32.7 2.6 31.5 33m0 0c-1.2 30.4-28.834 34.333-42.5 32.5h-71.5c-14.167.833-42.3 11.1-41.5 45.5.8 34.4 34 45.333 50.5 46.5h78.5m26.5-124.5c23.833 2 71.3 20.4 70.5 78m0 0-181-1.5m181 1.5c19.833-.167 59.4 11 59 57-.4 46-30.5 54.5-45.5 53m0 0c-8.834-11.333-31.5-34-51.5-34m51.5 34c-5.334 13.833-22 42.3-46 45.5-24 3.2-35.334 1.333-38 0m84-45.5c15 1.166 47.5 5.1 57.5 11.5 12.5 8 27.5 29 23.5 54.5-3.2 20.4-5.334 17.166-6 13m-159-33.5c2.333 17 .3 56.8-26.5 80m26.5-80c-4.5-18.834-21.7-58.8-54.5-68-32.801-9.2-47.334-11.5-50.5-11.5h-84m348 113h-88.5c0 38-25.334 46.833-38 46.5h-59m185.5-46.5c-1.834 22.333-11.7 71.1-36.5 87.5-1.834 2.5-8.8 7.6-22 8-4.34.131-15.57.194-30 .214m-97-49.214c-26.8 23.2-73.834 26.333-94 25m191 24.214c-29.467.04-72.276-.102-97-.214-.167 10.333-6 31-28 31H543.32m196.001-30.786c.632 2.789 1.158 6.09 1.494 9.786m-197.495 21c0 3.191.143 6.296.407 9.312m47.094 74.192c-6.834-1.367-14.5-7.104-17.501-9.504-1.829-1.464-12.58-12.295-20.693-30.5m38.194 40.004v156.496m0-156.496c25.725 5.147 63.947 7.184 95.685-7.504m-21.685-97h75.994m0 0c.292 3.225.439 6.751.382 10.5m-76.376 0h76.376m0 0c-.051 3.341-.263 6.86-.678 10.5m-75.698 0h75.698m0 0a105.874 105.874 0 0 1-1.953 11.5m-73.745 0h73.745m0 0a101.114 101.114 0 0 1-2.651 9.5m-71.094 0h71.094m0 0a95.598 95.598 0 0 1-4.91 12m-66.184 0h66.184m0 0a91.165 91.165 0 0 1-6.057 10.5m-60.127 0h60.127m0 0a89.39 89.39 0 0 1-8.232 10.5m-51.895 0h51.895m0 0a92.548 92.548 0 0 1-12.648 11.5m-38.747 0h38.747m0 0a98.933 98.933 0 0 1-2.747 2c-4.715 3.309-9.68 6.123-14.815 8.5m-21.185 0h21.185m-142.779-66.688h-27.478m27.478 0c.357 4.061.935 7.96 1.689 11.688m-29.167-11.688c3.638 2.999 6.841 6.839 9.032 11.688m20.135 0h-20.135m20.135 0c.793 3.923 1.78 7.657 2.905 11.193m-23.04-11.193c1.473 3.258 2.488 6.972 2.87 11.193m20.17 0h-20.17m20.17 0a108.75 108.75 0 0 0 4.306 11.307m-24.476-11.307c.111 1.226.169 2.494.169 3.807v7.5m24.307 0H528.32"/>
  <circle cx="526.821" cy="726.893" r="9" fill="#0A3591"/>
  <circle cx="354.321" cy="491.393" r="46.5" fill="#009FC6"/>
  <circle cx="283.321" cy="209.393" r="46.5" fill="#009FC6"/>
  <circle cx="813.321" cy="466.393" r="46.5" fill="#009FC6"/>
  <circle cx="740.321" cy="266.393" r="46.5" fill="#009FC6"/>
  <circle cx="666.321" cy="189.393" r="36.5" fill="#0A3591"/>
  <circle cx="752.321" cy="374.393" r="36.5" fill="#0A3591"/>
  <circle cx="642.321" cy="557.393" r="24.5" fill="#0A3591"/>
  <circle cx="479.321" cy="346.393" r="24.5" fill="#159B9C"/>
  <circle cx="560.321" cy="266.393" r="24.5" fill="#009FC6"/>
  <circle cx="493.321" cy="582.393" r="24.5" fill="#159B9C"/>
  <circle cx="493.321" cy="491.393" r="24.5" fill="#0A3591"/>
  <circle cx="580.321" cy="444.393" r="24.5" fill="#009FC6"/>
  <circle cx="469.321" cy="201.393" r="24.5" fill="#009FC6"/>
  <circle cx="547.821" cy="527.893" r="12" fill="#159B9C"/>
  <circle cx="666.821" cy="419.893" r="12" fill="#159B9C"/>
  <circle cx="555.821" cy="197.893" r="12" fill="#159B9C"/>
  <circle cx="642.821" cy="312.893" r="12" fill="#159B9C"/>
  <circle cx="702.821" cy="342.893" r="12" fill="#159B9C"/>
  <circle cx="740.821" cy="456.893" r="12" fill="#159B9C"/>
  <circle cx="434.321" cy="142.393" r="34.5" fill="#0A3591"/>
  <circle cx="234.321" cy="442.393" r="24.5" fill="#0A3591"/>
  <circle cx="283.321" cy="337.393" r="24.5" fill="#0A3591"/>
  <circle cx="345.321" cy="337.393" r="17.5" fill="#159B9C"/>
  <circle cx="345.321" cy="295.393" r="17.5" fill="#009FC6"/>
  <circle cx="236.321" cy="259.393" r="17.5" fill="#159B9C"/>
  <circle cx="589.821" cy="822.893" r="9" fill="#159B9C"/>
</svg>
