<svg xmlns="http://www.w3.org/2000/svg" width="668" height="768" fill="none" viewBox="0 0 668 768">
  <ellipse cx="316" cy="722.706" fill="url(#a)" opacity=".25" rx="299" ry="33.5"/>
  <path fill="url(#b)" d="M308 407.706c.8-6.4-3.667-18.333-6-23.5l1-1.5-1-11.5 11.5 5 25 3.5c7.833 3 23.1 10 21.5 14-1.6 4 .667 11 2 14l4 6.5v14.5l-11 16-24 4-17.5-10-11.5-19 6-12Z"/>
  <rect width="37" height="51" x="346" y="323.342" fill="#fff" rx="17" transform="rotate(-17.515 346 323.342)"/>
  <rect width="35" height="49" x="347.255" y="323.994" stroke="#90949C" stroke-opacity=".75" stroke-width="2" rx="16" transform="rotate(-17.515 347.255 323.994)"/>
  <path fill="url(#c)" d="M381 344.706c0-7.472-3.833-11.166-4-13.5l-6-39-17.5-6-20-13.5-35.5 16.5c-2.5 11.5-7.5 35.2-7.5 38 0 3.5 7 55 26.5 66.5s32.5 11.5 36.5 10c3.774-1.415 13-13.5 17.5-20.5s10-22.5 10-38.5Z"/>
  <path fill="#000" d="M352.683 379.071c-3.564.784-7.208 2.174-8.632 2.655.449 0 1.978-.039 4.503-.19 3.157-.189 6.686.55 10.63-1.032 3.945-1.583 5.148-5.298 5.148-5.298s-7.193 2.886-11.649 3.865Zm7.668-15.894c-1.803.877-5.477 1.12-8.308 1.448 4.272 1.249 5.573 1.804 8.264.455 1.338-.67 3.08-2.116 3.618-3.067.157-.279.786-2.74.507-3.436-.185.882-2.278 3.723-4.081 4.6Z"/>
  <path fill="#fff" d="M357.177 345.864c-.339-1.658.813-.414 1.323-1.158.806 1.562 1.015 3.258 1.851 4 2.233 4.223 2.768 3.836 3.574 4.5.434.634 1.681.913 1.2 2.399-.481 1.486-2.178 3.298-2.92 4.135-1.49-3.713-4.58-11.685-5.028-13.876Z"/>
  <path fill="#000" d="m356 361.206-2.5-15.5c-1 .334-2.8 1-2 1 .8 0 1 6.334 1 9.5-.667 1.167-1.8 3.8-1 5 .8 1.2 3.333.5 4.5 0Z"/>
  <path fill="#fff" d="M363 377.706c-2 3.413-10.833 3.334-14 4 4 1 9.5.5 11.5-.5 1.789-.894 5.326-8.323 2.5-3.5Z"/>
  <path fill="url(#d)" d="M207.5 557.706c5.2-33.2 9.833-66.833 11.5-79.5l30-5 24 34.5-8 98.5c-10.667 39.5-32.7 118.5-35.5 118.5-3.5 0-100 3-99 0s-5-6-9-4-10 3-18.5 4-12.5-9 0-11.5 24-12.5 27.5-15 45-1.5 46.5-4 24-95 30.5-136.5Z"/>
  <path fill="url(#e)" d="m423.5 652.206-15.5-158 37 12c1.5 25.167 5 78.3 7 89.5 2 11.2 18.5 71.334 26.5 100l31 3.5c4.5 2.834 14.2 9.1 17 11.5 3.5 3 22 7 16 12.5s-16 0-19.5 0-1.5-5-8-5.5c-5.2-.4-5.833 5.167-5.5 8H442l-18.5-73.5Z"/>
  <path fill="url(#f)" d="M317.06 732.206s-6.52-34.448-10.06-42.065c6.707 1.558 17.326 0 17.326 0 0-5.346 0 12.983 10.619 35.833 1.207 2.597-17.885 6.232-17.885 6.232Z"/>
  <path fill="#000" d="M293 340.206c-2.667-.166-8.7 0-11.5 2-3.5 2.5-6.5 1.5-9.5 5s-5-16.5-8.5-16.5c-2.8 0-6.167 2-7.5 3-.167-2 .3-6.5 3.5-8.5 4-2.5-6-.5-6.5 2.5s-.5-18 6.5-23c5.6-4 10.667-6 12.5-6.5-2.5-.666-8-1.6-10 0-2.5 2 4.5-4.5 10-4.5 4.4 0 .5-2-2-3 3.372.147 9.711.809 11.187 2.328-.858-3.77-2.974-18.54.313-21.828 4-4-.5 1 1.5 3s3-7 18.5-12.5 45 4 49 2 19-6 21-10c1.727-3.453-.646 5.02-2.936 7.4 3.102-1.037 10.497-3.442 11.936-7.4 2-5.5-4 16-13 19s12.5 1 15.5-4-3 6-6 7.5c-2.365 1.183 2.726 1.744 4.989.949.67-1.051 1.011-1.533 1.011-.949 0 .424-.404.735-1.011.949-1.624 2.545-5.18 8.428-10.489 10.551-6.862 2.745 6.367 2.141 8.667.487.215-.742.333-1.049.333-.487 0 .17-.119.333-.333.487-.549 1.899-1.729 6.654-3.167 7.013-6.333.167-20 3-26.5 5-8.36 2.572-17.5-17.5-37.5-5-16 10-15.333 16.834-13 19-3.333.834-8.1 7.2-8.5 14-.4 6.8.167 9.834 1.5 12Z"/>
  <path stroke="#000" d="M293 340.206c-2.667-.166-8.7 0-11.5 2-3.5 2.5-6.5 1.5-9.5 5s-5-16.5-8.5-16.5c-2.8 0-6.167 2-7.5 3-.167-2 .3-6.5 3.5-8.5 4-2.5-6-.5-6.5 2.5s-.5-18 6.5-23c5.6-4 10.667-6 12.5-6.5-2.5-.666-8-1.6-10 0-2.5 2 4.5-4.5 10-4.5 4.4 0 .5-2-2-3 3.833.167 11.5 1 11.5 3 0 2.5-4-18.5 0-22.5s-.5 1 1.5 3 3-7 18.5-12.5 45 4 49 2 19-6 21-10-1.5 8-4 8 11-2.5 13-8-4 16-13 19 12.5 1 15.5-4-3 6-6 7.5 6 2 6 0-4 8.5-11.5 11.5 9 2 9 0-1.5 7-3.5 7.5c-6.333.167-20 3-26.5 5-8.36 2.572-17.5-17.5-37.5-5-16 10-15.333 16.834-13 19-3.333.834-8.1 7.2-8.5 14-.4 6.8.167 9.834 1.5 12Z"/>
  <path fill="url(#g)" d="M322 438.206c-11.6-8-14.167-22.333-14-28.5-4.667-1.666-16.1-6.2-24.5-11-10.5-6-34-9-39.5-6s-12.5 9-20.5 30.5c-6.4 17.2-16.667 59.834-21 79 16 .5 52.5 12.5 52.5 12.5s-5.167 85-10 122c17 6.5 176 3 176 0 0-2.4-6-73.666-9-109 0-7.2 22-9 38.5-13-.333-1.5-5-37-5-37s-9-52.166-14.5-65.5c-3.5-8.666-16.4-24.2-40-17-23.6 7.2-28.5 12.667-28 14.5-2 18.4-7.5 24.667-10 25.5-5.5 4.334-19.4 11-31 3Z"/>
  <path stroke="#fff" stroke-width="3" d="M204 495.706c13.333 3.167 42.5 10.7 52.5 15.5m-52.5-25.5c16.167 4.667 49.3 14.6 52.5 17m46.5-95c-.833 7.334 1.4 25.1 17 35.5 15.6 10.4 30.167 4.334 35.5 0 5.167-3.666 14.8-19.3 12-38.5m-70.5.5c-.667 7.5.7 24.7 11.5 35.5 13.5 13.5 22.5 14.5 29.5 14s21.473-2.5 28-14c10.5-18.5 7-37 7-39m38.5 121c6.5-5.5 11-7.5 38-11m-39 4.5c4.833-3.166 19.5-8.5 39-10"/>
  <rect width="90.79" height="44.724" x="302.142" y="312.357" fill="#D9D9D9" rx="22.362" transform="rotate(-13.615 302.142 312.357)"/>
  <rect width="88.79" height="42.724" x="303.349" y="313.093" stroke="#47505F" stroke-opacity=".5" stroke-width="2" rx="21.362" transform="rotate(-13.615 303.349 313.093)"/>
  <path fill="#fff" d="M315.573 311.044c-6.832 5.218-10.321 14.155-8.167 23.046 2.527 10.434 11.991 17.368 22.306 17.094l-10.762 3.888c-11.053 3.992-23.249-1.732-27.242-12.785-3.992-11.052 1.732-23.249 12.785-27.241l11.08-4.002Z"/>
  <path fill="url(#h)" fill-opacity=".75" d="m338.851 340.45-3.542.859c-7.86 1.903-15.774-2.925-17.678-10.785-1.903-7.859 2.925-15.774 10.784-17.677l21.952-5.318-11.516 32.921Zm13.715-3.323-3.298.8 11.515-32.921 3.298-.799-11.515 32.92Zm18.004-34.449c7.497-1.244 14.794 3.496 16.612 11.001 1.903 7.859-2.925 15.774-10.784 17.677l-17.328 4.197 11.5-32.875Z"/>
  <rect width="43.855" height="9.691" x="332.929" y="321.927" fill="url(#i)" fill-opacity=".75" rx="4.845" transform="rotate(-13.615 332.929 321.927)"/>
  <rect width="41.855" height="7.691" x="334.136" y="322.664" stroke="#B97B80" stroke-opacity=".25" stroke-width="2" rx="3.845" transform="rotate(-13.615 334.136 322.664)"/>
  <path fill="#fff" d="M288.072 341.323c8.954-2.826 18.503 2.142 21.328 11.095l5.118 16.212c2.825 8.954-2.143 18.503-11.096 21.328l-2.861.903c-.99.312-1.987.528-2.982.655 7.184-3.738 10.868-12.2 8.347-20.189l-5.116-16.211c-2.514-7.965-10.347-12.775-18.349-11.752a17.082 17.082 0 0 1 2.751-1.139l2.86-.902Z"/>
  <rect width="37" height="51" x="260.409" y="350.039" fill="#fff" rx="17" transform="rotate(-17.515 260.409 350.039)"/>
  <rect width="35" height="49" x="261.664" y="350.692" stroke="#90949C" stroke-opacity=".75" stroke-width="2" rx="16" transform="rotate(-17.515 261.664 350.692)"/>
  <rect width="20.87" height="30.387" x="269.658" y="357.628" fill="#D9D9D9" rx="10.435" transform="rotate(-17.515 269.658 357.628)"/>
  <path fill="#1B1C1C" d="M367.5 637.206c-2 1.156-44.833 2-59 0-5.5-11-24-24-42-39-14.941-12.451-73-53.5-90.5-43.5s-24.5 39.5-19.5 60.5c4.278 17.967 11.5 39.167 32 58 23.402 21.5 28 27 48.5 27 22.145 0 55.333-5.167 74.5-9H323s0 18 11 36.5c6 0 29.5-3.5 29.5-3.5s29.5 7 63-3c14.333-3.167 49.6-16.8 76-46 33-36.5 22.5-63.5 16.5-71.5s-9-13.5-46.5-11.5c-51.5 2.747-82.5 32-105 45Z"/>
  <path fill="#345872" d="M274.5 694.206c-18.8-1.2-46.167-.5-57.5 0 1.5-.059 5.7.259 10.5 2 6 2.177 17.5 13.5 20 26.5 2 10.4.167 26.167-1.5 33-1 3.334 7.081 5.988 8.5 5.5 16-5.5 15.433-16.041 22-17.5 4.5-1 13.5 0 17.5-2 8.222-4.111 21.5-8 21.5-9.5s-1-13.5-2-22.5c-.8-7.2-5-15.666-7-19-2.833 1.667-13.2 4.7-32 3.5Z"/>
  <path fill="#fff" d="m225 765.206-26.5-65c5.167-1.833 14.9-6 20.5-6 7 0 21 7.5 27.5 24.5s-1.5 37.5-1.5 37.5 4 9 15 2.5c4.161-2.459 12.5-10.833 16-15h14.5c-2.333 1.334-8 4.2-12 5-5 1-13 16.5-24 18.5-8.8 1.6-23.333-.666-29.5-2Z"/>
  <path stroke="#fff" stroke-width="3" d="M251.5 705.706c2.333 3.667 6.8 15.2 6 32m5-32.5c3 4.5 6.2 16.3 5 29.5m7.5-29c1 5 2.9 17.8 2.5 29m5-33c2.5 3.5 7.3 14.3 6.5 29.5m-1.5-22.5c.333-7.833 3.1-24.8 11.5-30 8.4-5.2 11.167-2.166 11.5 0 1 3.5.4 12.8-10 22-6.833 6.044-10.298 9.83-11.872 11.952m0 0c-.146.197-.276.379-.391.548m.391-.548c1.111-.467 4.748-.385 13.872 2.048 12 3.2 15.333 13.667 15.5 18.5-1.667 3-6.6 8.4-13 6-6.4-2.4-14.333-17.333-17.5-24.5 0-.235.207-.719.737-1.5m.391-.548c-.35.147-.45.349-.391.548"/>
  <path fill="#335970" d="M397.5 725.206c-12.4-1.6-36.167-.666-46.5 0 3.167 1.167 11.2 4.7 18 9.5 8.5 6 18.348 0 22 4 8.4 9.2 18.5 13.834 22.5 15 4.167-1 11.9-3.7 9.5-6.5-2.4-2.8-3-17.833-3-25-2.333 1.667-10.1 4.6-22.5 3Z"/>
  <path fill="#fff" d="m443.5 757.206 21.5-53.5c-1 .5-5.9 4.6-11.5 7-13 7.5-29.5 9.5-33.5 12.5-3.2 2.4-.167 16.334 2.5 23.5.558 1.5-1.3 7.6-10.5 6-11.5-2-13.199-14-20-14-5 0-14.333-1.666-17-1 1.167.5 6.4 2.7 12 3.5 5.6.8 12.5 9 23.5 13.5 12.915 5.284 27.167 4.334 33 2.5Z"/>
  <path stroke="#fff" stroke-width="3" d="M371.5 722.706c-2 4.167-7.4 13-13 15s-5.333-6.166-4.5-10.5m37-1.5v3.5m7.5-3v3m11-3.5v5.5"/>
  <path stroke="#848484" stroke-width="2" d="M163.5 608.206c10.5 20.334 41.8 66 83 86m106.5-46.5c-6.667 5.834-16 23.5 0 47.5m-9.5-22c-4.333 2.334-14.4 8.3-20 13.5m32.5 13.5c2.333 4.667 8.4 14.4 14 16m-33.5 10.5c13.5-4.5 48.3-13.8 79.5-15 31.2-1.2 73.667-38.833 91-57.5 6.044-6.508 12.5-19 12.5-19m-245.5-30c12.772 10.732 40 29.5 47 60"/>
  <path stroke="#fff" stroke-width="2" d="M289.667 593.923c4.237 0 7.666 3.424 7.666 7.642 0 4.217-3.429 7.641-7.666 7.641S282 605.782 282 601.565c0-4.218 3.43-7.642 7.667-7.642Zm76.889-126.74c7.427 0 13.444 6.003 13.444 13.402 0 7.399-6.016 13.402-13.444 13.402-7.428 0-13.445-6.003-13.445-13.402 0-7.399 6.017-13.402 13.445-13.402Zm-61.112-7.977c3.624 0 6.556 2.928 6.556 6.533 0 3.606-2.932 6.535-6.556 6.535-3.623 0-6.555-2.929-6.555-6.535 0-3.605 2.932-6.533 6.555-6.533Z"/>
  <path fill="#fff" d="M378.413 483.993c0 5.382-4.359 9.745-9.737 9.745-5.377 0-9.737-4.363-9.737-9.745 0-5.382 4.36-9.746 9.737-9.746 5.378 0 9.737 4.364 9.737 9.746ZM406 453.403c0 4.336-3.512 7.851-7.843 7.851-4.332 0-7.844-3.515-7.844-7.851a7.847 7.847 0 0 1 7.844-7.85c4.331 0 7.843 3.514 7.843 7.85Zm14.18 144.558a5.683 5.683 0 0 1-5.68 5.685 5.683 5.683 0 0 1-5.68-5.685 5.682 5.682 0 0 1 5.68-5.685 5.682 5.682 0 0 1 5.68 5.685Zm-51.504-12.723a7.035 7.035 0 0 1-7.032 7.038 7.035 7.035 0 0 1-7.032-7.038 7.035 7.035 0 0 1 7.032-7.039 7.035 7.035 0 0 1 7.032 7.039ZM265.359 460.983a5.682 5.682 0 0 1-5.679 5.685 5.683 5.683 0 0 1-5.68-5.685 5.682 5.682 0 0 1 5.68-5.685 5.681 5.681 0 0 1 5.679 5.685Zm40.714 13.264a7.576 7.576 0 0 1-7.573 7.579 7.576 7.576 0 0 1-7.573-7.579c0-4.187 3.391-7.58 7.573-7.58s7.573 3.393 7.573 7.58Zm78.374-1.515h33.933v3.233h-33.933v-3.233Zm11.311-88.37v33.947h-2.154v-33.947h2.154Zm4.309 4.849v33.947h-2.154v-33.947h2.154Zm14.543-7.005v33.947h-2.155v-33.947h2.155Zm9.695 18.86v33.947h-2.155v-33.947h2.155Zm4.847 4.849v33.947h-2.154v-33.947h2.154Zm4.309-.539v33.948h-2.154v-33.948h2.154ZM383.37 478.12h37.165v3.233H383.37v-3.233Z"/>
  <path fill="#fff" fill-opacity=".5" d="M211.012 403.76h77.561v14.01h-77.561v-14.01Z"/>
  <path fill="#fff" d="M169 512.067h51.169v2.156H169v-2.156Z"/>
  <path fill="#fff" fill-opacity=".5" d="M179.234 432.319h101.26v8.082h-101.26v-8.082Zm37.703 132.555V590.2h-5.925v-25.326h5.925Zm66.789 112.618v25.326h-3.232v-25.326h3.232Zm39.319-4.849v35.563h-6.464v-35.563h6.464Z"/>
  <path fill="#fff" d="M331.124 651.089v39.874h-2.154v-39.874h2.154Zm-8.079-122.317v23.709h-8.08v-23.709h8.08Zm36.087 34.485v1.078h-4.847v-1.078h4.847Zm5.925 0v1.078h-4.848v-1.078h4.848Zm-11.85 0v1.078h-4.847v-1.078h4.847Zm-5.924 0v1.078h-4.848v-1.078h4.848Zm11.849-2.155v1.078h-4.847v-1.078h4.847Zm5.925 0v1.078h-4.848v-1.078h4.848Zm-11.85 0v1.078h-4.847v-1.078h4.847Zm-5.924 0v1.078h-4.848v-1.078h4.848Zm11.849-2.155v1.077h-4.847v-1.077h4.847Zm5.925 0v1.077h-4.848v-1.077h4.848Zm-11.85 0v1.077h-4.847v-1.077h4.847Zm-5.924 0v1.077h-4.848v-1.077h4.848Zm11.849-2.156v1.078h-4.847v-1.078h4.847Zm5.925 0v1.078h-4.848v-1.078h4.848Zm-11.85 0v1.078h-4.847v-1.078h4.847Zm5.925-2.155v1.078h-4.847v-1.078h4.847Zm-5.925 0v1.078h-4.847v-1.078h4.847Zm5.925-2.155v1.077h-4.847v-1.077h4.847ZM293.959 659.71v7.005h-12.388v-7.005h12.388Z"/>
  <path fill="#fff" fill-opacity=".5" d="M222.862 559.486v17.781h-5.925v-17.781h5.925Zm7.002-15.627v17.782h-5.925v-17.782h5.925Z"/>
  <path fill="#fff" d="M388.756 562.18h-22.083v-3.772h22.083v3.772Zm6.464-17.243h-3.771v-3.772h3.771v3.772Zm5.386-.539h-3.771v-3.772h3.771v3.772Zm4.847 0h-3.77v-3.772h3.77v3.772Zm5.386 0h-3.77v-3.772h3.77v3.772Zm-19.39 12.393h-24.776v-1.077h24.776v1.077Zm36.088-15.626a.539.539 0 0 1-.539-.539v-8.621c0-.298.241-.539.539-.539h1.077c.297 0 .538.241.538.539v8.621a.538.538 0 0 1-.538.539h-1.077Zm4.847 0a.538.538 0 0 1-.538-.539v-5.388c0-.298.241-.539.538-.539h1.077c.298 0 .539.241.539.539v5.388a.539.539 0 0 1-.539.539h-1.077Zm-9.695 0a.54.54 0 0 1-.539-.539v-5.388a.54.54 0 0 1 .539-.539h1.077c.298 0 .539.241.539.539v5.388a.539.539 0 0 1-.539.539h-1.077Zm-4.848 0a.538.538 0 0 1-.538-.539v-6.466c0-.298.241-.539.538-.539h1.078c.297 0 .538.241.538.539v6.466a.538.538 0 0 1-.538.539h-1.078Zm-4.847 0a.539.539 0 0 1-.539-.539v-4.311a.54.54 0 0 1 .539-.539h1.077a.54.54 0 0 1 .539.539v4.311a.539.539 0 0 1-.539.539h-1.077Z"/>
  <path fill="url(#j)" d="M6.5 338.706c11.5-9 50-19.5 62.5-24v50s-31.333 14.5-37.5 20l-13.5-6.5c-10-5.833-25-28.935-11.5-39.5Z" opacity=".3"/>
  <path fill="url(#k)" d="M0 416.206v-67c5 23.5 21 35 54 43 12.692 3.077 92.833 14.167 132 17.5v53c-20-.333-70.3-3.1-111.5-11.5s-66.833-26.833-74.5-35Z" opacity=".4"/>
  <path fill="url(#l)" d="M650 146.706c-30.8-24-121.834-35.666-163.5-38.5v110c99.035 0 136.333 46 143 62v-62l20.5-14c12.833-9.166 30.8-33.5 0-57.5Z" opacity=".4"/>
  <path fill="url(#m)" d="M628 215.706c18.5 0 38.166-28 39-36 0 0 1.004 143.079 0 145.5-8.5 20.5-33.667 33.5-40.5 36l1.5-145.5Z" opacity=".4"/>
  <path fill="url(#n)" d="M191 156.206V8.706c22.667-3 85-6.5 121-8.5 23.5-1.305 101.333 3.834 133.5 8.5v154s-87.5-12-116.5-12.5c-23.2-.4-101.667 3.834-138 6Z" opacity=".3"/>
  <defs>
    <linearGradient id="a" x1="17" x2="615" y1="722.706" y2="722.706" gradientUnits="userSpaceOnUse">
      <stop stop-color="#009FC6"/>
      <stop offset="1" stop-color="#1A79B1"/>
    </linearGradient>
    <linearGradient id="b" x1="306.5" x2="372.5" y1="393.706" y2="405.206" gradientUnits="userSpaceOnUse">
      <stop offset=".018" stop-color="#694428"/>
      <stop offset=".243" stop-color="#C39556"/>
    </linearGradient>
    <linearGradient id="c" x1="305" x2="378" y1="363.706" y2="343.706" gradientUnits="userSpaceOnUse">
      <stop stop-color="#DBA570"/>
      <stop offset="1" stop-color="#F2B156"/>
    </linearGradient>
    <linearGradient id="d" x1="210.5" x2="243" y1="604.206" y2="609.206" gradientUnits="userSpaceOnUse">
      <stop stop-color="#F1B157"/>
      <stop offset="1" stop-color="#A77C48"/>
    </linearGradient>
    <linearGradient id="e" x1="432" x2="413.5" y1="578.206" y2="580.206" gradientUnits="userSpaceOnUse">
      <stop stop-color="#F1B157"/>
      <stop offset="1" stop-color="#A27845"/>
    </linearGradient>
    <linearGradient id="f" x1="310.912" x2="325.214" y1="695.334" y2="730.895" gradientUnits="userSpaceOnUse">
      <stop stop-color="#FFB947"/>
      <stop offset="1" stop-color="#996F2B"/>
    </linearGradient>
    <linearGradient id="g" x1="185" x2="332" y1="588.206" y2="516.206" gradientUnits="userSpaceOnUse">
      <stop stop-color="#0B334B"/>
      <stop offset="1" stop-color="#1A78B1"/>
    </linearGradient>
    <linearGradient id="h" x1="319.5" x2="382" y1="335.207" y2="307.207" gradientUnits="userSpaceOnUse">
      <stop stop-color="#F6F6F6"/>
      <stop offset="1" stop-color="#CCDADB"/>
    </linearGradient>
    <linearGradient id="i" x1="332.929" x2="376.784" y1="326.773" y2="326.773" gradientUnits="userSpaceOnUse">
      <stop offset=".014" stop-color="#784241"/>
      <stop offset="1" stop-color="#DE7A78"/>
    </linearGradient>
    <linearGradient id="j" x1="37" x2="1" y1="353.206" y2="363.706" gradientUnits="userSpaceOnUse">
      <stop stop-color="#fff"/>
      <stop offset="1" stop-color="#C7C7C7"/>
    </linearGradient>
    <linearGradient id="k" x1="14" x2="157.5" y1="415.206" y2="439.706" gradientUnits="userSpaceOnUse">
      <stop stop-color="#D9D9D9"/>
      <stop offset="1" stop-color="#009FC6"/>
    </linearGradient>
    <linearGradient id="l" x1="576.753" x2="576.753" y1="108.206" y2="280.206" gradientUnits="userSpaceOnUse">
      <stop stop-color="#fff"/>
      <stop offset="1" stop-color="#737373"/>
    </linearGradient>
    <linearGradient id="m" x1="667" x2="618.5" y1="246.706" y2="247.706" gradientUnits="userSpaceOnUse">
      <stop stop-color="#104F74"/>
      <stop offset="1" stop-color="#009FC6"/>
    </linearGradient>
    <linearGradient id="n" x1="133.5" x2="497" y1="98.206" y2="88.206" gradientUnits="userSpaceOnUse">
      <stop stop-color="#009FC6"/>
      <stop offset=".524" stop-color="#D9D9D9"/>
      <stop offset="1" stop-color="#146493"/>
    </linearGradient>
  </defs>
</svg>
